<?xml version="1.0" encoding="UTF-8" standalone="no"?>
<!DOCTYPE svg PUBLIC "-//W3C//DTD SVG 1.1//EN" "http://www.w3.org/Graphics/SVG/1.1/DTD/svg11.dtd">
<svg width="100%" height="100%" viewBox="0 0 800 600" version="1.1" xmlns="http://www.w3.org/2000/svg" xmlns:xlink="http://www.w3.org/1999/xlink" xml:space="preserve" xmlns:serif="http://www.serif.com/" style="fill-rule:evenodd;clip-rule:evenodd;stroke-linejoin:round;stroke-miterlimit:2;">
    <path d="M800,0L0,0L0,600L800,600L800,0ZM400.41,330.667L400.41,361.614L431.561,361.614L431.561,330.667L400.41,330.667ZM215.552,258.323L267.198,258.323C269.794,258.323 272.321,258.903 274.781,260.065C277.24,261.226 279.426,262.797 281.339,264.778C283.251,266.76 284.823,268.98 286.052,271.439C287.282,273.898 287.897,276.426 287.897,279.022C287.897,284.214 286.838,289.576 284.72,295.11C282.602,300.643 279.699,306.108 276.01,311.505C272.321,316.902 268.086,321.991 263.304,326.773C258.522,331.555 253.432,335.791 248.036,339.48C242.639,343.169 237.174,346.072 231.64,348.19C226.107,350.308 220.744,351.366 215.552,351.366L215.552,361.614C225.799,361.614 235.5,360.042 244.654,356.9C253.808,353.757 262.211,349.727 269.862,344.808C277.513,339.89 284.379,334.322 290.459,328.106C296.539,321.889 301.662,315.741 305.829,309.661C309.996,303.581 313.207,297.808 315.461,292.343C317.716,286.878 318.843,282.438 318.843,279.022C318.843,273.83 318.194,268.775 316.896,263.856C315.598,258.938 313.685,254.531 311.158,250.637C308.63,246.744 305.419,243.601 301.525,241.21C297.632,238.819 293.089,237.624 287.897,237.624L215.552,237.624L215.552,258.323ZM544.074,289.269L544.074,258.323L471.73,258.323L471.73,237.624L554.321,237.624C556.917,237.624 559.445,238.204 561.904,239.366C564.363,240.527 566.584,242.098 568.565,244.079C570.546,246.06 572.117,248.281 573.278,250.74C574.44,253.199 575.02,255.727 575.02,258.323L575.02,289.269C575.02,291.865 573.927,295.349 571.741,299.721C573.927,303.957 575.02,307.372 575.02,309.968L575.02,340.914C575.02,343.51 574.44,346.038 573.278,348.497C572.117,350.957 570.546,353.177 568.565,355.158C566.584,357.139 564.363,358.71 561.904,359.872C559.445,361.033 556.917,361.614 554.321,361.614L471.73,361.614L471.73,340.914L544.074,340.914L544.074,309.968L471.73,309.968L471.73,289.269L544.074,289.269ZM677.286,258.323L615.189,258.323L615.189,237.624L687.533,237.624C690.129,237.624 692.657,238.204 695.116,239.366C697.576,240.527 699.796,242.098 701.777,244.079C703.758,246.06 705.329,248.281 706.491,250.74C707.652,253.199 708.233,255.727 708.233,258.323L708.233,271.849C706.73,280.457 704.68,286.502 702.084,289.986C699.488,293.47 691.12,301.019 676.979,312.632C662.838,324.246 654.196,331.453 651.054,334.254C647.911,337.055 646.34,339.275 646.34,340.914L708.438,340.914L708.438,361.614L604.942,361.614C604.942,356.422 606.206,351.264 608.733,346.14C611.261,341.017 614.984,335.859 619.903,330.667C624.821,325.475 633.258,317.995 645.213,308.226C657.168,298.457 665.468,290.704 670.113,284.965C674.759,279.227 677.081,273.762 677.081,268.57L677.286,258.323ZM61.846,320.215L185.836,351.366L185.836,320.215L61.846,289.269L61.846,320.215ZM338.517,237.624L338.517,268.57L400.41,268.57L400.41,320.215L431.561,320.215L431.561,237.624L338.517,237.624ZM61.846,237.624L61.846,268.57L185.836,268.57L185.836,237.624L61.846,237.624Z"/>
</svg>
