<?xml version="1.0" encoding="UTF-8" standalone="no"?>
<!DOCTYPE svg PUBLIC "-//W3C//DTD SVG 1.1//EN" "http://www.w3.org/Graphics/SVG/1.1/DTD/svg11.dtd">
<svg width="100%" height="100%" viewBox="0 0 800 600" version="1.1" xmlns="http://www.w3.org/2000/svg" xmlns:xlink="http://www.w3.org/1999/xlink" xml:space="preserve" xmlns:serif="http://www.serif.com/" style="fill-rule:evenodd;clip-rule:evenodd;stroke-linejoin:round;stroke-miterlimit:2;">
    <path d="M800,181.047L0,181.047L0,418.953L800,418.953L800,181.047ZM370.386,259.143L384.527,259.143L384.527,239.878L411.169,232.295L411.169,259.143L436.172,259.143L436.172,281.686L411.169,281.686L411.169,321.035C411.169,328.14 411.887,333.229 413.321,336.303C414.756,339.377 417.454,340.914 421.416,340.914C424.149,340.914 426.506,340.641 428.487,340.095C430.468,339.548 432.688,338.728 435.148,337.635L439.861,358.13C436.172,359.906 431.868,361.409 426.95,362.638C422.031,363.868 417.044,364.483 411.989,364.483C402.562,364.483 395.628,362.058 391.187,357.207C386.747,352.357 384.527,344.398 384.527,333.332L384.527,281.686L370.386,281.686L370.386,259.143ZM266.07,310.378C266.07,293.026 270.306,279.671 278.777,270.312C287.248,260.953 299.134,256.273 314.437,256.273C322.634,256.273 329.739,257.571 335.751,260.167C341.762,262.763 346.749,266.418 350.711,271.132C354.674,275.845 357.645,281.55 359.626,288.244C361.608,294.939 362.598,302.317 362.598,310.378C362.598,327.73 358.397,341.085 349.994,350.444C341.592,359.803 329.739,364.483 314.437,364.483C306.239,364.483 299.134,363.185 293.123,360.589C287.111,357.993 282.09,354.338 278.06,349.624C274.029,344.911 271.023,339.207 269.042,332.512C267.061,325.817 266.07,318.439 266.07,310.378ZM490.277,341.939C498.748,341.939 505.204,339.685 509.644,335.176C514.084,330.667 516.305,325.202 516.305,318.781C516.305,310.993 513.982,305.254 509.337,301.566C504.691,297.877 497.382,296.032 487.408,296.032L472.652,296.032L472.652,281.891L497.45,248.076L509.132,238.853L492.941,240.698L458.511,240.698L458.511,218.154L536.799,218.154L536.799,232.705L507.902,271.439L498.884,276.973L498.884,277.997L507.492,276.768C512.274,277.177 516.817,278.27 521.121,280.047C525.424,281.823 529.182,284.385 532.392,287.732C535.603,291.079 538.165,295.212 540.078,300.131C541.991,305.05 542.947,310.72 542.947,317.141C542.947,325.202 541.615,332.17 538.951,338.045C536.286,343.92 532.597,348.839 527.884,352.801C523.17,356.763 517.671,359.701 511.386,361.614C505.101,363.526 498.338,364.483 491.097,364.483C485.085,364.483 478.868,363.936 472.447,362.843C466.025,361.75 460.834,360.179 456.871,358.13L464.044,335.996C467.597,337.772 471.525,339.207 475.829,340.3C480.132,341.393 484.948,341.939 490.277,341.939ZM139.006,218.154C141.876,217.744 145.121,217.403 148.741,217.129C152.362,216.856 156.085,216.651 159.911,216.515C163.736,216.378 167.459,216.276 171.08,216.207C174.701,216.139 177.945,216.105 180.815,216.105C193.521,216.105 204.383,217.881 213.4,221.433C222.418,224.986 229.727,229.973 235.329,236.394C240.931,242.816 245.03,250.467 247.626,259.348C250.222,268.228 251.52,277.997 251.52,288.654C251.52,298.355 250.29,307.714 247.831,316.731C245.371,325.749 241.273,333.741 235.534,340.709C229.796,347.677 222.247,353.279 212.888,357.515C203.529,361.75 191.95,363.868 178.15,363.868C175.964,363.868 173.061,363.8 169.44,363.663C165.82,363.526 162.062,363.356 158.169,363.151C154.275,362.946 150.552,362.741 146.999,362.536C143.447,362.331 140.783,362.092 139.006,361.818L139.006,218.154ZM654.435,253.199C654.435,260.167 653.172,267.204 650.644,274.308C648.116,281.413 644.906,288.381 641.012,295.212C637.118,302.044 632.814,308.636 628.1,314.989C623.387,321.342 618.775,327.183 614.267,332.512L603.405,340.914L603.405,341.939L618.161,339.07L657.509,339.07L657.509,361.614L571.229,361.614L571.229,347.882C574.508,344.467 578.197,340.47 582.296,335.893C586.395,331.316 590.528,326.466 594.695,321.342C598.862,316.219 602.927,310.925 606.889,305.459C610.851,299.994 614.403,294.495 617.546,288.962C620.688,283.428 623.182,278.066 625.026,272.874C626.871,267.682 627.793,262.763 627.793,258.118C627.793,252.516 626.188,247.905 622.977,244.284C619.766,240.664 614.677,238.853 607.709,238.853C603.337,238.853 598.862,239.776 594.285,241.62C589.708,243.465 585.848,245.821 582.706,248.691L572.049,229.836C577.377,225.464 583.423,221.946 590.186,219.281C596.949,216.617 604.908,215.285 614.062,215.285C619.937,215.285 625.334,216.105 630.252,217.744C635.171,219.384 639.406,221.775 642.959,224.917C646.511,228.06 649.312,231.988 651.361,236.701C653.411,241.415 654.435,246.914 654.435,253.199ZM293.533,310.378C293.533,314.887 293.943,319.054 294.762,322.88C295.582,326.705 296.812,330.052 298.451,332.922C300.091,335.791 302.243,338.011 304.907,339.582C307.571,341.153 310.748,341.939 314.437,341.939C321.405,341.939 326.597,339.411 330.012,334.356C333.428,329.301 335.136,321.308 335.136,310.378C335.136,300.951 333.565,293.334 330.422,287.527C327.28,281.72 321.951,278.817 314.437,278.817C307.879,278.817 302.755,281.276 299.066,286.195C295.377,291.114 293.533,299.175 293.533,310.378ZM183.069,241.108C180.063,241.108 177.023,241.176 173.949,241.313C170.875,241.449 168.586,241.654 167.084,241.927L167.084,338.045C167.63,338.182 168.552,338.284 169.85,338.353C171.148,338.421 172.549,338.489 174.052,338.558C175.554,338.626 176.989,338.694 178.355,338.762C179.722,338.831 180.746,338.865 181.429,338.865C189.354,338.865 195.946,337.465 201.206,334.664C206.467,331.863 210.634,328.14 213.708,323.494C216.782,318.849 218.934,313.486 220.163,307.406C221.393,301.326 222.008,295.076 222.008,288.654C222.008,283.052 221.461,277.417 220.368,271.746C219.275,266.076 217.26,260.987 214.323,256.478C211.385,251.97 207.389,248.281 202.334,245.411C197.278,242.542 190.857,241.108 183.069,241.108Z"/>
</svg>
